<mxfile host="app.diagrams.net" agent="Mozilla/5.0 (Windows NT 10.0; Win64; x64) AppleWebKit/537.36 (KHTML, like Gecko) Chrome/132.0.0.0 Safari/537.36 Edg/132.0.0.0" version="26.0.4">
  <diagram name="Page-1" id="vSCFxdcvaDYq0WxzbHtU">
    <mxGraphModel dx="1666" dy="781" grid="1" gridSize="10" guides="1" tooltips="1" connect="1" arrows="1" fold="1" page="1" pageScale="1" pageWidth="827" pageHeight="1169" math="0" shadow="0">
      <root>
        <mxCell id="0" />
        <mxCell id="1" parent="0" />
        <mxCell id="cq3QQEe0hWzqSglUgIMy-1" value="Utilisateur" style="swimlane;childLayout=stackLayout;horizontal=1;startSize=50;horizontalStack=0;rounded=1;fontSize=14;fontStyle=0;strokeWidth=2;resizeParent=0;resizeLast=1;shadow=0;dashed=0;align=center;arcSize=4;whiteSpace=wrap;html=1;fillColor=#dae8fc;strokeColor=#6c8ebf;direction=east;flipV=0;flipH=0;" vertex="1" parent="1">
          <mxGeometry x="360" y="240" width="160" height="150" as="geometry" />
        </mxCell>
        <mxCell id="cq3QQEe0hWzqSglUgIMy-2" value="+ &lt;u&gt;&lt;b&gt;ID_utilisateur&lt;/b&gt;&lt;/u&gt;&lt;br&gt;+ nom&lt;div&gt;+ prénom&lt;/div&gt;&lt;div&gt;+ E-mail&lt;/div&gt;&lt;div&gt;+ Telephone&lt;/div&gt;&lt;div&gt;+ Mot_de_passe&lt;/div&gt;" style="align=left;strokeColor=none;fillColor=none;spacingLeft=4;fontSize=12;verticalAlign=top;resizable=0;rotatable=0;part=1;html=1;" vertex="1" parent="cq3QQEe0hWzqSglUgIMy-1">
          <mxGeometry y="50" width="160" height="100" as="geometry" />
        </mxCell>
        <mxCell id="cq3QQEe0hWzqSglUgIMy-3" value="Reservation" style="swimlane;childLayout=stackLayout;horizontal=1;startSize=50;horizontalStack=0;rounded=1;fontSize=14;fontStyle=0;strokeWidth=2;resizeParent=0;resizeLast=1;shadow=0;dashed=0;align=center;arcSize=4;whiteSpace=wrap;html=1;fillColor=#ffe6cc;strokeColor=#d79b00;" vertex="1" parent="1">
          <mxGeometry x="360" y="470" width="160" height="140" as="geometry" />
        </mxCell>
        <mxCell id="cq3QQEe0hWzqSglUgIMy-4" value="+ &lt;b&gt;&lt;u&gt;ID_reservation&lt;/u&gt;&lt;/b&gt;&lt;br&gt;+ Date_reservation&lt;br&gt;+ Statut&lt;div&gt;+ ID_creneau&lt;/div&gt;&lt;div&gt;+ID_utilisateur&lt;/div&gt;" style="align=left;strokeColor=none;fillColor=none;spacingLeft=4;fontSize=12;verticalAlign=top;resizable=0;rotatable=0;part=1;html=1;" vertex="1" parent="cq3QQEe0hWzqSglUgIMy-3">
          <mxGeometry y="50" width="160" height="90" as="geometry" />
        </mxCell>
        <mxCell id="cq3QQEe0hWzqSglUgIMy-5" value="Liste d&#39;attente" style="swimlane;childLayout=stackLayout;horizontal=1;startSize=50;horizontalStack=0;rounded=1;fontSize=14;fontStyle=0;strokeWidth=2;resizeParent=0;resizeLast=1;shadow=0;dashed=0;align=center;arcSize=4;whiteSpace=wrap;html=1;fillColor=#d5e8d4;strokeColor=#82b366;" vertex="1" parent="1">
          <mxGeometry x="730" y="250" width="160" height="120" as="geometry" />
        </mxCell>
        <mxCell id="cq3QQEe0hWzqSglUgIMy-6" value="+ &lt;b&gt;&lt;u&gt;ID_attente&lt;/u&gt;&lt;/b&gt;&lt;br&gt;+ Date_demande&lt;br&gt;&lt;div&gt;+ Position&lt;/div&gt;" style="align=left;strokeColor=none;fillColor=none;spacingLeft=4;fontSize=12;verticalAlign=top;resizable=0;rotatable=0;part=1;html=1;" vertex="1" parent="cq3QQEe0hWzqSglUgIMy-5">
          <mxGeometry y="50" width="160" height="70" as="geometry" />
        </mxCell>
        <mxCell id="cq3QQEe0hWzqSglUgIMy-7" value="Equipement" style="swimlane;childLayout=stackLayout;horizontal=1;startSize=50;horizontalStack=0;rounded=1;fontSize=14;fontStyle=0;strokeWidth=2;resizeParent=0;resizeLast=1;shadow=0;dashed=0;align=center;arcSize=4;whiteSpace=wrap;html=1;fillColor=#CEA7D1;strokeColor=#643DBF;" vertex="1" parent="1">
          <mxGeometry x="360" y="720" width="160" height="150" as="geometry" />
        </mxCell>
        <mxCell id="cq3QQEe0hWzqSglUgIMy-8" value="+ &lt;b&gt;&lt;u&gt;ID_equipement&lt;/u&gt;&lt;/b&gt;&lt;div&gt;+ Nom&lt;/div&gt;&lt;div&gt;+ Description&amp;nbsp;&lt;/div&gt;&lt;div&gt;+ Type&lt;/div&gt;&lt;div&gt;+ Disponibilité&lt;/div&gt;&lt;div&gt;+ URL&lt;/div&gt;" style="align=left;strokeColor=none;fillColor=none;spacingLeft=4;fontSize=12;verticalAlign=top;resizable=0;rotatable=0;part=1;html=1;" vertex="1" parent="cq3QQEe0hWzqSglUgIMy-7">
          <mxGeometry y="50" width="160" height="100" as="geometry" />
        </mxCell>
        <mxCell id="cq3QQEe0hWzqSglUgIMy-9" value="Créneau" style="swimlane;childLayout=stackLayout;horizontal=1;startSize=50;horizontalStack=0;rounded=1;fontSize=14;fontStyle=0;strokeWidth=2;resizeParent=0;resizeLast=1;shadow=0;dashed=0;align=center;arcSize=4;whiteSpace=wrap;html=1;fillColor=#e1d5e7;strokeColor=#9673a6;" vertex="1" parent="1">
          <mxGeometry x="730" y="470" width="160" height="120" as="geometry" />
        </mxCell>
        <mxCell id="cq3QQEe0hWzqSglUgIMy-10" value="+ &lt;b&gt;&lt;u&gt;ID_créneau&lt;/u&gt;&lt;/b&gt;&lt;div&gt;+ heure_début&lt;/div&gt;&lt;div&gt;+ heure_fin&lt;/div&gt;&lt;div&gt;+ ID_salle&lt;/div&gt;&lt;div&gt;&lt;br&gt;&lt;/div&gt;" style="align=left;strokeColor=none;fillColor=none;spacingLeft=4;fontSize=12;verticalAlign=top;resizable=0;rotatable=0;part=1;html=1;" vertex="1" parent="cq3QQEe0hWzqSglUgIMy-9">
          <mxGeometry y="50" width="160" height="70" as="geometry" />
        </mxCell>
        <mxCell id="cq3QQEe0hWzqSglUgIMy-11" value="" style="line;strokeWidth=1;rotatable=0;dashed=0;labelPosition=right;align=left;verticalAlign=middle;spacingTop=0;spacingLeft=6;points=[];portConstraint=eastwest;" vertex="1" parent="1">
          <mxGeometry x="520" y="305" width="210" height="10" as="geometry" />
        </mxCell>
        <mxCell id="cq3QQEe0hWzqSglUgIMy-12" value="" style="endArrow=none;html=1;rounded=0;entryX=0.5;entryY=1;entryDx=0;entryDy=0;exitX=0.5;exitY=0;exitDx=0;exitDy=0;" edge="1" parent="1" source="cq3QQEe0hWzqSglUgIMy-9" target="cq3QQEe0hWzqSglUgIMy-6">
          <mxGeometry width="50" height="50" relative="1" as="geometry">
            <mxPoint x="740" y="610" as="sourcePoint" />
            <mxPoint x="790" y="560" as="targetPoint" />
          </mxGeometry>
        </mxCell>
        <mxCell id="cq3QQEe0hWzqSglUgIMy-13" value="" style="endArrow=none;html=1;rounded=0;exitX=0.5;exitY=1;exitDx=0;exitDy=0;entryX=0.5;entryY=0;entryDx=0;entryDy=0;" edge="1" parent="1" source="cq3QQEe0hWzqSglUgIMy-2" target="cq3QQEe0hWzqSglUgIMy-3">
          <mxGeometry width="50" height="50" relative="1" as="geometry">
            <mxPoint x="740" y="610" as="sourcePoint" />
            <mxPoint x="790" y="560" as="targetPoint" />
          </mxGeometry>
        </mxCell>
        <mxCell id="cq3QQEe0hWzqSglUgIMy-14" value="" style="endArrow=none;html=1;rounded=0;exitX=0.5;exitY=1;exitDx=0;exitDy=0;entryX=0.5;entryY=0;entryDx=0;entryDy=0;" edge="1" parent="1" source="cq3QQEe0hWzqSglUgIMy-4">
          <mxGeometry width="50" height="50" relative="1" as="geometry">
            <mxPoint x="740" y="610" as="sourcePoint" />
            <mxPoint x="440" y="720" as="targetPoint" />
          </mxGeometry>
        </mxCell>
        <mxCell id="cq3QQEe0hWzqSglUgIMy-15" value="" style="endArrow=none;html=1;rounded=0;exitX=1;exitY=0.25;exitDx=0;exitDy=0;entryX=0;entryY=0.357;entryDx=0;entryDy=0;entryPerimeter=0;" edge="1" parent="1">
          <mxGeometry width="50" height="50" relative="1" as="geometry">
            <mxPoint x="520" y="538.76" as="sourcePoint" />
            <mxPoint x="730" y="541.25" as="targetPoint" />
          </mxGeometry>
        </mxCell>
        <mxCell id="cq3QQEe0hWzqSglUgIMy-16" value="1,n" style="text;html=1;align=center;verticalAlign=middle;whiteSpace=wrap;rounded=0;" vertex="1" parent="1">
          <mxGeometry x="420" y="390" width="60" height="30" as="geometry" />
        </mxCell>
        <mxCell id="cq3QQEe0hWzqSglUgIMy-17" value="1" style="text;html=1;align=center;verticalAlign=middle;whiteSpace=wrap;rounded=0;" vertex="1" parent="1">
          <mxGeometry x="420" y="440" width="60" height="30" as="geometry" />
        </mxCell>
        <mxCell id="cq3QQEe0hWzqSglUgIMy-18" value="1,1" style="text;html=1;align=center;verticalAlign=middle;whiteSpace=wrap;rounded=0;" vertex="1" parent="1">
          <mxGeometry x="510" y="510" width="60" height="30" as="geometry" />
        </mxCell>
        <mxCell id="cq3QQEe0hWzqSglUgIMy-19" value="1,1" style="text;html=1;align=center;verticalAlign=middle;whiteSpace=wrap;rounded=0;" vertex="1" parent="1">
          <mxGeometry x="420" y="590" width="60" height="30" as="geometry" />
        </mxCell>
        <mxCell id="cq3QQEe0hWzqSglUgIMy-20" value="0,n" style="text;html=1;align=center;verticalAlign=middle;whiteSpace=wrap;rounded=0;" vertex="1" parent="1">
          <mxGeometry x="510" y="285" width="60" height="30" as="geometry" />
        </mxCell>
        <mxCell id="cq3QQEe0hWzqSglUgIMy-21" value="1,1" style="text;html=1;align=center;verticalAlign=middle;whiteSpace=wrap;rounded=0;" vertex="1" parent="1">
          <mxGeometry x="790" y="370" width="60" height="30" as="geometry" />
        </mxCell>
        <mxCell id="cq3QQEe0hWzqSglUgIMy-22" value="n" style="text;html=1;align=center;verticalAlign=middle;whiteSpace=wrap;rounded=0;" vertex="1" parent="1">
          <mxGeometry x="690" y="285" width="60" height="30" as="geometry" />
        </mxCell>
        <mxCell id="cq3QQEe0hWzqSglUgIMy-23" value="1,n" style="text;html=1;align=center;verticalAlign=middle;whiteSpace=wrap;rounded=0;" vertex="1" parent="1">
          <mxGeometry x="420" y="690" width="60" height="30" as="geometry" />
        </mxCell>
        <mxCell id="cq3QQEe0hWzqSglUgIMy-24" value="1" style="text;html=1;align=center;verticalAlign=middle;whiteSpace=wrap;rounded=0;" vertex="1" parent="1">
          <mxGeometry x="684" y="510" width="60" height="30" as="geometry" />
        </mxCell>
      </root>
    </mxGraphModel>
  </diagram>
</mxfile>
